<svg width="29" height="28" viewBox="0 0 29 28" fill="none" xmlns="http://www.w3.org/2000/svg">
<g clip-path="url(#clip0_83_277)">
<mask id="mask0_83_277" style="mask-type:luminance" maskUnits="userSpaceOnUse" x="0" y="0" width="29" height="28">
<path d="M29 0H0V28H29V0Z" fill="white"/>
</mask>
<g mask="url(#mask0_83_277)">
<path d="M21.354 27.505L20.209 26.34L14.529 20.32C12.664 22.297 9.822 25.308 8.689 26.508C8.698 26.513 8.707 26.518 8.716 26.523L7.66 27.597C3.192 25.075 0 20.078 0 14.6C0 6.537 6.516 0 14.553 0C22.59 0 29.105 6.537 29.105 14.6C29.105 20.197 25.964 25.055 21.354 27.505ZM14.553 1.413C7.305 1.413 1.409 7.329 1.409 14.6C1.409 19.212 3.94 23.45 7.567 25.861L13.663 19.402L12.507 18.177C12.456 18.125 12.073 18.025 11.929 18.177C11.631 18.495 11.218 18.932 11.207 18.944C10.969 19.197 10.578 19.197 10.34 18.944L10.273 18.872L10.118 18.708L5.843 14.175C5.576 13.892 5.608 13.407 5.939 13.173C6.186 12.998 6.469 13.105 6.678 13.328L9.278 16.084L10.434 17.309C10.609 17.496 10.957 17.426 11.108 17.202C11.226 17.027 11.189 16.78 11.045 16.627L9.907 15.421L7.288 12.644C7.021 12.361 7.053 11.876 7.384 11.641C7.63 11.466 7.913 11.548 8.123 11.77L10.723 14.528L11.878 15.753C12.054 15.938 12.402 15.894 12.552 15.671C12.67 15.494 12.734 15.171 12.59 15.018L11.452 13.812L8.852 11.054C8.643 10.832 8.59 10.53 8.755 10.268C8.976 9.917 9.383 9.883 9.649 10.167L13.924 14.7L14.079 14.864L14.146 14.936C14.385 15.188 14.334 15.627 14.096 15.881C14.084 15.893 13.521 16.49 13.373 16.646C13.229 16.799 13.323 17.205 13.373 17.259L14.529 18.483L15.829 17.106L22.185 10.366C22.347 10.194 22.449 10.085 22.474 10.06C22.726 9.792 23.148 9.856 23.34 10.06C23.765 10.51 23.277 16.253 20.163 19.556C19.44 20.322 18.862 20.322 18.14 19.556C17.896 19.298 17.433 18.806 16.985 18.331C16.84 18.177 16.569 18.158 16.262 18.484C16.222 18.526 15.894 18.874 15.396 19.402L21.444 25.81C25.19 23.485 27.697 19.335 27.697 14.6C27.697 7.329 21.801 1.413 14.553 1.413ZM17.851 17.413C18.119 17.696 18.501 18.101 18.668 18.278C19.013 18.644 19.334 18.597 19.791 18.112C21.601 16.193 22.251 12.274 22.185 12.204C22.131 12.261 21.926 12.478 21.766 12.648C21.651 12.77 18.927 15.658 17.996 16.646C17.815 16.839 17.685 17.235 17.851 17.413ZM8.429 27.985L8.415 27.999C8.406 27.995 8.398 27.99 8.389 27.985H8.429Z" fill="black"/>
</g>
</g>
<defs>
<clipPath id="clip0_83_277">
<rect width="29" height="28" fill="white"/>
</clipPath>
</defs>
</svg>
